<svg xmlns="http://www.w3.org/2000/svg" viewBox="0 0 760 460" width="760" height="460" font-family="'IBM Plex Sans',-apple-system,'Segoe UI',Helvetica,Arial,sans-serif" role="img" aria-label="Read latency once the dataset outgrows memory"><style>:root{--fg:#151a24;--fg2:#525d74;--fg3:#7d879c;--grid:#e2e6ee;--axis:#aeb6c6;--bg:#ffffff;--s1:#2a78d6;--s2:#eb6834;--s3:#1baf7a;--s4:#eda100;--s5:#4a3aa7;}@media(prefers-color-scheme:dark){:root:not([data-theme="light"]){--fg:#e3e8f2;--fg2:#9aa5bc;--fg3:#6e7a92;--grid:#242c3a;--axis:#3a4557;--bg:#0d1017;--s1:#3987e5;--s2:#d95926;--s3:#199e70;--s4:#c98500;--s5:#9085e9;}}:root[data-theme="dark"]{--fg:#e3e8f2;--fg2:#9aa5bc;--fg3:#6e7a92;--grid:#242c3a;--axis:#3a4557;--bg:#0d1017;--s1:#3987e5;--s2:#d95926;--s3:#199e70;--s4:#c98500;--s5:#9085e9;}.ttl{font-size:15px;font-weight:600;fill:var(--fg)}.sub{font-size:11.5px;fill:var(--fg2)}.ax{font-size:11px;fill:var(--fg2);font-variant-numeric:tabular-nums}.axt{font-size:11.5px;font-weight:500;fill:var(--fg2)}.lbl{font-size:11px;font-weight:600;font-variant-numeric:tabular-nums}.cap{font-size:10.5px;fill:var(--fg3)}.lg{font-size:11px;fill:var(--fg2)}</style><rect width="760" height="460" fill="var(--bg)"/><text x="78" y="26" class="ttl">Read latency once the dataset outgrows memory</text><text x="78" y="43" class="sub">mmap with no madvise: no readahead control, no async I/O, no eviction policy</text><line x1="78" y1="289.0" x2="628.0" y2="289.0" stroke="var(--grid)" stroke-width="1"/><text x="69.0" y="292.8" class="ax" text-anchor="end">0.01</text><line x1="78" y1="233.8" x2="628.0" y2="233.8" stroke="var(--grid)" stroke-width="1"/><text x="69.0" y="237.6" class="ax" text-anchor="end">0.10</text><line x1="78" y1="178.6" x2="628.0" y2="178.6" stroke="var(--grid)" stroke-width="1"/><text x="69.0" y="182.4" class="ax" text-anchor="end">1</text><line x1="78" y1="123.4" x2="628.0" y2="123.4" stroke="var(--grid)" stroke-width="1"/><text x="69.0" y="127.2" class="ax" text-anchor="end">10</text><line x1="78" y1="68.2" x2="628.0" y2="68.2" stroke="var(--grid)" stroke-width="1"/><text x="69.0" y="72.0" class="ax" text-anchor="end">100</text><line x1="183.9" y1="62" x2="183.9" y2="344.0" stroke="var(--grid)" stroke-width="1"/><text x="183.9" y="362.0" class="ax" text-anchor="middle">10</text><line x1="295.0" y1="62" x2="295.0" y2="344.0" stroke="var(--grid)" stroke-width="1"/><text x="295.0" y="362.0" class="ax" text-anchor="middle">100</text><line x1="406.0" y1="62" x2="406.0" y2="344.0" stroke="var(--grid)" stroke-width="1"/><text x="406.0" y="362.0" class="ax" text-anchor="middle">1k</text><line x1="517.0" y1="62" x2="517.0" y2="344.0" stroke="var(--grid)" stroke-width="1"/><text x="517.0" y="362.0" class="ax" text-anchor="middle">10k</text><line x1="78" y1="344.0" x2="628.0" y2="344.0" stroke="var(--axis)" stroke-width="1"/><text x="353.0" y="384.0" class="axt" text-anchor="middle">1 / (1 - percentile) (log)</text><text transform="translate(18.0,203.0) rotate(-90)" class="axt" text-anchor="middle">read latency (ms) (log)</text><path d="M78.0 332.7L86.8 329.9L106.3 326.3L139.8 320.8L183.9 304.5L217.4 299.0L295.0 292.8L328.4 286.4L406.0 255.2L517.0 248.9L628.0 236.5" fill="none" stroke="var(--s1)" stroke-width="2" stroke-linejoin="round" stroke-linecap="round"/><circle cx="78.0" cy="332.7" r="4" fill="var(--s1)" stroke="var(--bg)" stroke-width="2"/><circle cx="86.8" cy="329.9" r="4" fill="var(--s1)" stroke="var(--bg)" stroke-width="2"/><circle cx="106.3" cy="326.3" r="4" fill="var(--s1)" stroke="var(--bg)" stroke-width="2"/><circle cx="139.8" cy="320.8" r="4" fill="var(--s1)" stroke="var(--bg)" stroke-width="2"/><circle cx="183.9" cy="304.5" r="4" fill="var(--s1)" stroke="var(--bg)" stroke-width="2"/><circle cx="217.4" cy="299.0" r="4" fill="var(--s1)" stroke="var(--bg)" stroke-width="2"/><circle cx="295.0" cy="292.8" r="4" fill="var(--s1)" stroke="var(--bg)" stroke-width="2"/><circle cx="328.4" cy="286.4" r="4" fill="var(--s1)" stroke="var(--bg)" stroke-width="2"/><circle cx="406.0" cy="255.2" r="4" fill="var(--s1)" stroke="var(--bg)" stroke-width="2"/><circle cx="517.0" cy="248.9" r="4" fill="var(--s1)" stroke="var(--bg)" stroke-width="2"/><circle cx="628.0" cy="236.5" r="4" fill="var(--s1)" stroke="var(--bg)" stroke-width="2"/><path d="M78.0 286.8L86.8 280.9L106.3 223.3L139.8 138.0L183.9 131.9L217.4 129.4L295.0 124.6L328.4 123.0L406.0 118.2L517.0 92.4L628.0 73.3" fill="none" stroke="var(--s2)" stroke-width="2" stroke-linejoin="round" stroke-linecap="round"/><circle cx="78.0" cy="286.8" r="4" fill="var(--s2)" stroke="var(--bg)" stroke-width="2"/><circle cx="86.8" cy="280.9" r="4" fill="var(--s2)" stroke="var(--bg)" stroke-width="2"/><circle cx="106.3" cy="223.3" r="4" fill="var(--s2)" stroke="var(--bg)" stroke-width="2"/><circle cx="139.8" cy="138.0" r="4" fill="var(--s2)" stroke="var(--bg)" stroke-width="2"/><circle cx="183.9" cy="131.9" r="4" fill="var(--s2)" stroke="var(--bg)" stroke-width="2"/><circle cx="217.4" cy="129.4" r="4" fill="var(--s2)" stroke="var(--bg)" stroke-width="2"/><circle cx="295.0" cy="124.6" r="4" fill="var(--s2)" stroke="var(--bg)" stroke-width="2"/><circle cx="328.4" cy="123.0" r="4" fill="var(--s2)" stroke="var(--bg)" stroke-width="2"/><circle cx="406.0" cy="118.2" r="4" fill="var(--s2)" stroke="var(--bg)" stroke-width="2"/><circle cx="517.0" cy="92.4" r="4" fill="var(--s2)" stroke="var(--bg)" stroke-width="2"/><circle cx="628.0" cy="73.3" r="4" fill="var(--s2)" stroke="var(--bg)" stroke-width="2"/><text x="637.0" y="77.1" class="lbl" fill="var(--s2)">out of core</text><text x="637.0" y="240.3" class="lbl" fill="var(--s1)">resident</text><line x1="78.0" y1="406.0" x2="94.0" y2="406.0" stroke="var(--s1)" stroke-width="2"/><text x="100.0" y="409.8" class="lg">resident</text><line x1="160.8" y1="406.0" x2="176.8" y2="406.0" stroke="var(--s2)" stroke-width="2"/><text x="182.8" y="409.8" class="lg">out of core</text><text x="78" y="436.0" class="cap">Page cache dropped between phases. The gap is what the engine pays when it has to reach storage,</text><text x="78" y="450.0" class="cap">which no published number measures.</text></svg>