<svg xmlns="http://www.w3.org/2000/svg" viewBox="0 0 820 484" width="820" height="484" font-family="'IBM Plex Sans',-apple-system,'Segoe UI',Helvetica,Arial,sans-serif" role="img" aria-label="Load, read and scan: Supdb against the field"><style>:root{--fg:#151a24;--fg2:#525d74;--fg3:#7d879c;--grid:#e2e6ee;--axis:#aeb6c6;--bg:#ffffff;--s1:#2a78d6;--s2:#eb6834;--s3:#1baf7a;--s4:#eda100;--s5:#4a3aa7;}@media(prefers-color-scheme:dark){:root:not([data-theme="light"]){--fg:#e3e8f2;--fg2:#9aa5bc;--fg3:#6e7a92;--grid:#242c3a;--axis:#3a4557;--bg:#0d1017;--s1:#3987e5;--s2:#d95926;--s3:#199e70;--s4:#c98500;--s5:#9085e9;}}:root[data-theme="dark"]{--fg:#e3e8f2;--fg2:#9aa5bc;--fg3:#6e7a92;--grid:#242c3a;--axis:#3a4557;--bg:#0d1017;--s1:#3987e5;--s2:#d95926;--s3:#199e70;--s4:#c98500;--s5:#9085e9;}.ttl{font-size:15px;font-weight:600;fill:var(--fg)}.sub{font-size:11.5px;fill:var(--fg2)}.ax{font-size:11px;fill:var(--fg2);font-variant-numeric:tabular-nums}.axt{font-size:11.5px;font-weight:500;fill:var(--fg2)}.cap{font-size:10.5px;fill:var(--fg3)}.lg{font-size:11px;fill:var(--fg2)}.gl{font-size:10.5px;fill:var(--fg2)}</style><rect width="820" height="484" fill="var(--bg)"/><text x="78" y="26" class="ttl">Load, read and scan: Supdb against the field</text><text x="78" y="43" class="sub">workload shape follows redb's own benchmark; all engines native, no JNI</text><line x1="78" y1="343.0" x2="794.0" y2="343.0" stroke="var(--grid)" stroke-width="1"/><text x="69.0" y="346.8" class="ax" text-anchor="end">100k</text><line x1="78" y1="315.4" x2="794.0" y2="315.4" stroke="var(--grid)" stroke-width="1"/><text x="69.0" y="319.2" class="ax" text-anchor="end">200k</text><line x1="78" y1="278.8" x2="794.0" y2="278.8" stroke="var(--grid)" stroke-width="1"/><text x="69.0" y="282.6" class="ax" text-anchor="end">500k</text><line x1="78" y1="251.2" x2="794.0" y2="251.2" stroke="var(--grid)" stroke-width="1"/><text x="69.0" y="255.0" class="ax" text-anchor="end">1M</text><line x1="78" y1="223.5" x2="794.0" y2="223.5" stroke="var(--grid)" stroke-width="1"/><text x="69.0" y="227.3" class="ax" text-anchor="end">2M</text><line x1="78" y1="187.0" x2="794.0" y2="187.0" stroke="var(--grid)" stroke-width="1"/><text x="69.0" y="190.8" class="ax" text-anchor="end">5M</text><line x1="78" y1="159.3" x2="794.0" y2="159.3" stroke="var(--grid)" stroke-width="1"/><text x="69.0" y="163.1" class="ax" text-anchor="end">10M</text><line x1="78" y1="131.7" x2="794.0" y2="131.7" stroke="var(--grid)" stroke-width="1"/><text x="69.0" y="135.5" class="ax" text-anchor="end">20M</text><line x1="78" y1="95.1" x2="794.0" y2="95.1" stroke="var(--grid)" stroke-width="1"/><text x="69.0" y="98.9" class="ax" text-anchor="end">50M</text><line x1="78" y1="67.5" x2="794.0" y2="67.5" stroke="var(--grid)" stroke-width="1"/><text x="69.0" y="71.3" class="ax" text-anchor="end">100M</text><line x1="78" y1="362.0" x2="794.0" y2="362.0" stroke="var(--axis)" stroke-width="1"/><text transform="translate(18,212.0) rotate(-90)" class="axt" text-anchor="middle">operations/s (log)</text><path d="M86.0 362.0 L86.0 261.6 Q86.0 257.6 90.0 257.6 Q135.7 257.6 139.7 261.6 L139.7 362.0 Z" fill="var(--s1)"/><path d="M141.7 362.0 L141.7 298.8 Q141.7 294.8 145.7 294.8 Q191.3 294.8 195.3 298.8 L195.3 362.0 Z" fill="var(--s2)"/><path d="M197.3 362.0 L197.3 254.1 Q197.3 250.1 201.3 250.1 Q247.0 250.1 251.0 254.1 L251.0 362.0 Z" fill="var(--s3)"/><path d="M253.0 362.0 L253.0 338.4 Q253.0 334.4 257.0 334.4 Q302.7 334.4 306.7 338.4 L306.7 362.0 Z" fill="var(--s4)"/><text x="197.3" y="380.0" class="gl" text-anchor="middle">bulk load</text><path d="M324.7 362.0 L324.7 261.9 Q324.7 257.9 328.7 257.9 Q374.3 257.9 378.3 261.9 L378.3 362.0 Z" fill="var(--s1)"/><path d="M380.3 362.0 L380.3 254.9 Q380.3 250.9 384.3 250.9 Q430.0 250.9 434.0 254.9 L434.0 362.0 Z" fill="var(--s2)"/><path d="M436.0 362.0 L436.0 223.5 Q436.0 219.5 440.0 219.5 Q485.7 219.5 489.7 223.5 L489.7 362.0 Z" fill="var(--s3)"/><path d="M491.7 362.0 L491.7 253.4 Q491.7 249.4 495.7 249.4 Q541.3 249.4 545.3 253.4 L545.3 362.0 Z" fill="var(--s4)"/><text x="436.0" y="380.0" class="gl" text-anchor="middle">random read</text><path d="M563.3 362.0 L563.3 153.1 Q563.3 149.1 567.3 149.1 Q613.0 149.1 617.0 153.1 L617.0 362.0 Z" fill="var(--s1)"/><path d="M619.0 362.0 L619.0 164.0 Q619.0 160.0 623.0 160.0 Q668.7 160.0 672.7 164.0 L672.7 362.0 Z" fill="var(--s2)"/><path d="M674.7 362.0 L674.7 79.4 Q674.7 75.4 678.7 75.4 Q724.3 75.4 728.3 79.4 L728.3 362.0 Z" fill="var(--s3)"/><path d="M730.3 362.0 L730.3 202.5 Q730.3 198.5 734.3 198.5 Q780.0 198.5 784.0 202.5 L784.0 362.0 Z" fill="var(--s4)"/><text x="674.7" y="380.0" class="gl" text-anchor="middle">range scan</text><rect x="78.0" y="395.0" width="11" height="11" rx="2" fill="var(--s1)"/><text x="95.0" y="404.0" class="lg">supdb</text><rect x="141.0" y="395.0" width="11" height="11" rx="2" fill="var(--s2)"/><text x="158.0" y="404.0" class="lg">redb</text><rect x="197.4" y="395.0" width="11" height="11" rx="2" fill="var(--s3)"/><text x="214.4" y="404.0" class="lg">lmdb</text><rect x="253.8" y="395.0" width="11" height="11" rx="2" fill="var(--s4)"/><text x="270.8" y="404.0" class="lg">sled</text><text x="78" y="424.0" class="cap">Log scale. The design document reports Supdb ahead of LMDB on warm reads, measured through a Java</text><text x="78" y="438.0" class="cap">harness with an adapter it separately found to allocate per value and open a transaction per lookup.</text><text x="78" y="452.0" class="cap">Measured natively, the ordering reverses.</text></svg>