<svg xmlns="http://www.w3.org/2000/svg" viewBox="0 0 820 484" width="820" height="484" font-family="'IBM Plex Sans',-apple-system,'Segoe UI',Helvetica,Arial,sans-serif" role="img" aria-label="Load, read and scan: Supdb against the field"><style>:root{--fg:#151a24;--fg2:#525d74;--fg3:#7d879c;--grid:#e2e6ee;--axis:#aeb6c6;--bg:#ffffff;--s1:#2a78d6;--s2:#eb6834;--s3:#1baf7a;--s4:#eda100;--s5:#4a3aa7;}@media(prefers-color-scheme:dark){:root:not([data-theme="light"]){--fg:#e3e8f2;--fg2:#9aa5bc;--fg3:#6e7a92;--grid:#242c3a;--axis:#3a4557;--bg:#0d1017;--s1:#3987e5;--s2:#d95926;--s3:#199e70;--s4:#c98500;--s5:#9085e9;}}:root[data-theme="dark"]{--fg:#e3e8f2;--fg2:#9aa5bc;--fg3:#6e7a92;--grid:#242c3a;--axis:#3a4557;--bg:#0d1017;--s1:#3987e5;--s2:#d95926;--s3:#199e70;--s4:#c98500;--s5:#9085e9;}.ttl{font-size:15px;font-weight:600;fill:var(--fg)}.sub{font-size:11.5px;fill:var(--fg2)}.ax{font-size:11px;fill:var(--fg2);font-variant-numeric:tabular-nums}.axt{font-size:11.5px;font-weight:500;fill:var(--fg2)}.cap{font-size:10.5px;fill:var(--fg3)}.lg{font-size:11px;fill:var(--fg2)}.gl{font-size:10.5px;fill:var(--fg2)}</style><rect width="820" height="484" fill="var(--bg)"/><text x="78" y="26" class="ttl">Load, read and scan: Supdb against the field</text><text x="78" y="43" class="sub">workload shape follows redb's own benchmark; all engines native, no JNI</text><line x1="78" y1="341.0" x2="794.0" y2="341.0" stroke="var(--grid)" stroke-width="1"/><text x="69.0" y="344.8" class="ax" text-anchor="end">50k</text><line x1="78" y1="314.1" x2="794.0" y2="314.1" stroke="var(--grid)" stroke-width="1"/><text x="69.0" y="317.9" class="ax" text-anchor="end">100k</text><line x1="78" y1="287.2" x2="794.0" y2="287.2" stroke="var(--grid)" stroke-width="1"/><text x="69.0" y="291.0" class="ax" text-anchor="end">200k</text><line x1="78" y1="251.7" x2="794.0" y2="251.7" stroke="var(--grid)" stroke-width="1"/><text x="69.0" y="255.5" class="ax" text-anchor="end">500k</text><line x1="78" y1="224.8" x2="794.0" y2="224.8" stroke="var(--grid)" stroke-width="1"/><text x="69.0" y="228.6" class="ax" text-anchor="end">1M</text><line x1="78" y1="197.9" x2="794.0" y2="197.9" stroke="var(--grid)" stroke-width="1"/><text x="69.0" y="201.7" class="ax" text-anchor="end">2M</text><line x1="78" y1="162.4" x2="794.0" y2="162.4" stroke="var(--grid)" stroke-width="1"/><text x="69.0" y="166.2" class="ax" text-anchor="end">5M</text><line x1="78" y1="135.5" x2="794.0" y2="135.5" stroke="var(--grid)" stroke-width="1"/><text x="69.0" y="139.3" class="ax" text-anchor="end">10M</text><line x1="78" y1="108.6" x2="794.0" y2="108.6" stroke="var(--grid)" stroke-width="1"/><text x="69.0" y="112.4" class="ax" text-anchor="end">20M</text><line x1="78" y1="73.1" x2="794.0" y2="73.1" stroke="var(--grid)" stroke-width="1"/><text x="69.0" y="76.9" class="ax" text-anchor="end">50M</text><line x1="78" y1="362.0" x2="794.0" y2="362.0" stroke="var(--axis)" stroke-width="1"/><text transform="translate(18,212.0) rotate(-90)" class="axt" text-anchor="middle">operations/s (log)</text><path d="M86.0 362.0 L86.0 247.2 Q86.0 243.2 90.0 243.2 Q135.7 243.2 139.7 247.2 L139.7 362.0 Z" fill="var(--s1)"/><path d="M141.7 362.0 L141.7 284.6 Q141.7 280.6 145.7 280.6 Q191.3 280.6 195.3 284.6 L195.3 362.0 Z" fill="var(--s2)"/><path d="M197.3 362.0 L197.3 254.6 Q197.3 250.6 201.3 250.6 Q247.0 250.6 251.0 254.6 L251.0 362.0 Z" fill="var(--s3)"/><path d="M253.0 362.0 L253.0 339.1 Q253.0 335.1 257.0 335.1 Q302.7 335.1 306.7 339.1 L306.7 362.0 Z" fill="var(--s4)"/><text x="197.3" y="380.0" class="gl" text-anchor="middle">bulk load</text><path d="M324.7 362.0 L324.7 239.6 Q324.7 235.6 328.7 235.6 Q374.3 235.6 378.3 239.6 L378.3 362.0 Z" fill="var(--s1)"/><path d="M380.3 362.0 L380.3 238.9 Q380.3 234.9 384.3 234.9 Q430.0 234.9 434.0 238.9 L434.0 362.0 Z" fill="var(--s2)"/><path d="M436.0 362.0 L436.0 206.9 Q436.0 202.9 440.0 202.9 Q485.7 202.9 489.7 206.9 L489.7 362.0 Z" fill="var(--s3)"/><path d="M491.7 362.0 L491.7 249.5 Q491.7 245.5 495.7 245.5 Q541.3 245.5 545.3 249.5 L545.3 362.0 Z" fill="var(--s4)"/><text x="436.0" y="380.0" class="gl" text-anchor="middle">random read</text><path d="M563.3 362.0 L563.3 137.2 Q563.3 133.2 567.3 133.2 Q613.0 133.2 617.0 137.2 L617.0 362.0 Z" fill="var(--s1)"/><path d="M619.0 362.0 L619.0 141.7 Q619.0 137.7 623.0 137.7 Q668.7 137.7 672.7 141.7 L672.7 362.0 Z" fill="var(--s2)"/><path d="M674.7 362.0 L674.7 79.1 Q674.7 75.1 678.7 75.1 Q724.3 75.1 728.3 79.1 L728.3 362.0 Z" fill="var(--s3)"/><path d="M730.3 362.0 L730.3 189.2 Q730.3 185.2 734.3 185.2 Q780.0 185.2 784.0 189.2 L784.0 362.0 Z" fill="var(--s4)"/><text x="674.7" y="380.0" class="gl" text-anchor="middle">range scan</text><rect x="78.0" y="395.0" width="11" height="11" rx="2" fill="var(--s1)"/><text x="95.0" y="404.0" class="lg">supdb</text><rect x="141.0" y="395.0" width="11" height="11" rx="2" fill="var(--s2)"/><text x="158.0" y="404.0" class="lg">redb</text><rect x="197.4" y="395.0" width="11" height="11" rx="2" fill="var(--s3)"/><text x="214.4" y="404.0" class="lg">lmdb</text><rect x="253.8" y="395.0" width="11" height="11" rx="2" fill="var(--s4)"/><text x="270.8" y="404.0" class="lg">sled</text><text x="78" y="424.0" class="cap">Log scale. The design document reports Supdb ahead of LMDB on warm reads, measured through a Java</text><text x="78" y="438.0" class="cap">harness with an adapter it separately found to allocate per value and open a transaction per lookup.</text><text x="78" y="452.0" class="cap">Measured natively, the ordering reverses.</text></svg>