<svg xmlns="http://www.w3.org/2000/svg" viewBox="0 0 760 460" width="760" height="460" font-family="'IBM Plex Sans',-apple-system,'Segoe UI',Helvetica,Arial,sans-serif" role="img" aria-label="The mean is not a summary of append cost"><style>:root{--fg:#151a24;--fg2:#525d74;--fg3:#7d879c;--grid:#e2e6ee;--axis:#aeb6c6;--bg:#ffffff;--s1:#2a78d6;--s2:#eb6834;--s3:#1baf7a;--s4:#eda100;--s5:#4a3aa7;}@media(prefers-color-scheme:dark){:root:not([data-theme="light"]){--fg:#e3e8f2;--fg2:#9aa5bc;--fg3:#6e7a92;--grid:#242c3a;--axis:#3a4557;--bg:#0d1017;--s1:#3987e5;--s2:#d95926;--s3:#199e70;--s4:#c98500;--s5:#9085e9;}}:root[data-theme="dark"]{--fg:#e3e8f2;--fg2:#9aa5bc;--fg3:#6e7a92;--grid:#242c3a;--axis:#3a4557;--bg:#0d1017;--s1:#3987e5;--s2:#d95926;--s3:#199e70;--s4:#c98500;--s5:#9085e9;}.ttl{font-size:15px;font-weight:600;fill:var(--fg)}.sub{font-size:11.5px;fill:var(--fg2)}.ax{font-size:11px;fill:var(--fg2);font-variant-numeric:tabular-nums}.axt{font-size:11.5px;font-weight:500;fill:var(--fg2)}.lbl{font-size:11px;font-weight:600;font-variant-numeric:tabular-nums}.cap{font-size:10.5px;fill:var(--fg3)}.lg{font-size:11px;fill:var(--fg2)}</style><rect width="760" height="460" fill="var(--bg)"/><text x="78" y="26" class="ttl">The mean is not a summary of append cost</text><text x="78" y="43" class="sub">x = 10 is p90, 100 is p99, 1000 is p99.9</text><line x1="78" y1="320.1" x2="628.0" y2="320.1" stroke="var(--grid)" stroke-width="1"/><text x="69.0" y="323.9" class="ax" text-anchor="end">2e-4</text><line x1="78" y1="288.4" x2="628.0" y2="288.4" stroke="var(--grid)" stroke-width="1"/><text x="69.0" y="292.2" class="ax" text-anchor="end">5e-4</text><line x1="78" y1="264.5" x2="628.0" y2="264.5" stroke="var(--grid)" stroke-width="1"/><text x="69.0" y="268.3" class="ax" text-anchor="end">1e-3</text><line x1="78" y1="240.6" x2="628.0" y2="240.6" stroke="var(--grid)" stroke-width="1"/><text x="69.0" y="244.4" class="ax" text-anchor="end">2e-3</text><line x1="78" y1="208.9" x2="628.0" y2="208.9" stroke="var(--grid)" stroke-width="1"/><text x="69.0" y="212.7" class="ax" text-anchor="end">5e-3</text><line x1="78" y1="185.0" x2="628.0" y2="185.0" stroke="var(--grid)" stroke-width="1"/><text x="69.0" y="188.8" class="ax" text-anchor="end">0.01</text><line x1="78" y1="161.1" x2="628.0" y2="161.1" stroke="var(--grid)" stroke-width="1"/><text x="69.0" y="164.9" class="ax" text-anchor="end">0.02</text><line x1="78" y1="129.4" x2="628.0" y2="129.4" stroke="var(--grid)" stroke-width="1"/><text x="69.0" y="133.2" class="ax" text-anchor="end">0.05</text><line x1="78" y1="105.5" x2="628.0" y2="105.5" stroke="var(--grid)" stroke-width="1"/><text x="69.0" y="109.3" class="ax" text-anchor="end">0.10</text><line x1="78" y1="81.6" x2="628.0" y2="81.6" stroke="var(--grid)" stroke-width="1"/><text x="69.0" y="85.4" class="ax" text-anchor="end">0.20</text><line x1="183.9" y1="62" x2="183.9" y2="330.0" stroke="var(--grid)" stroke-width="1"/><text x="183.9" y="348.0" class="ax" text-anchor="middle">10</text><line x1="295.0" y1="62" x2="295.0" y2="330.0" stroke="var(--grid)" stroke-width="1"/><text x="295.0" y="348.0" class="ax" text-anchor="middle">100</text><line x1="406.0" y1="62" x2="406.0" y2="330.0" stroke="var(--grid)" stroke-width="1"/><text x="406.0" y="348.0" class="ax" text-anchor="middle">1k</text><line x1="517.0" y1="62" x2="517.0" y2="330.0" stroke="var(--grid)" stroke-width="1"/><text x="517.0" y="348.0" class="ax" text-anchor="middle">10k</text><line x1="78" y1="330.0" x2="628.0" y2="330.0" stroke="var(--axis)" stroke-width="1"/><text x="353.0" y="370.0" class="axt" text-anchor="middle">1 / (1 - percentile) (log)</text><text transform="translate(18.0,196.0) rotate(-90)" class="axt" text-anchor="middle">append latency (ms) (log)</text><path d="M78.0 313.8L86.8 307.2L106.3 299.8L139.8 292.8L183.9 283.3L217.4 275.4L295.0 220.6L328.4 211.3L406.0 143.0L517.0 105.4L628.0 78.2" fill="none" stroke="var(--s1)" stroke-width="2" stroke-linejoin="round" stroke-linecap="round"/><circle cx="78.0" cy="313.8" r="4" fill="var(--s1)" stroke="var(--bg)" stroke-width="2"/><circle cx="86.8" cy="307.2" r="4" fill="var(--s1)" stroke="var(--bg)" stroke-width="2"/><circle cx="106.3" cy="299.8" r="4" fill="var(--s1)" stroke="var(--bg)" stroke-width="2"/><circle cx="139.8" cy="292.8" r="4" fill="var(--s1)" stroke="var(--bg)" stroke-width="2"/><circle cx="183.9" cy="283.3" r="4" fill="var(--s1)" stroke="var(--bg)" stroke-width="2"/><circle cx="217.4" cy="275.4" r="4" fill="var(--s1)" stroke="var(--bg)" stroke-width="2"/><circle cx="295.0" cy="220.6" r="4" fill="var(--s1)" stroke="var(--bg)" stroke-width="2"/><circle cx="328.4" cy="211.3" r="4" fill="var(--s1)" stroke="var(--bg)" stroke-width="2"/><circle cx="406.0" cy="143.0" r="4" fill="var(--s1)" stroke="var(--bg)" stroke-width="2"/><circle cx="517.0" cy="105.4" r="4" fill="var(--s1)" stroke="var(--bg)" stroke-width="2"/><circle cx="628.0" cy="78.2" r="4" fill="var(--s1)" stroke="var(--bg)" stroke-width="2"/><path d="M78.0 285.1L628.0 285.1" fill="none" stroke="var(--fg3)" stroke-width="1.5" stroke-dasharray="5 4" opacity="0.75"/><text x="637.0" y="82.0" class="lbl" fill="var(--s1)">append</text><text x="637.0" y="288.9" class="lbl" fill="var(--fg3)">mean</text><line x1="78.0" y1="392.0" x2="94.0" y2="392.0" stroke="var(--s1)" stroke-width="2"/><text x="100.0" y="395.8" class="lg">append</text><line x1="147.6" y1="392.0" x2="163.6" y2="392.0" stroke="var(--fg3)" stroke-width="2" stroke-dasharray="5 4"/><text x="169.6" y="395.8" class="lg">mean</text><text x="78" y="422.0" class="cap">Latency measured per call. The distance between the curve and the dashed mean is the cost inline</text><text x="78" y="436.0" class="cap">merging and whole-index checkpoints impose on an unlucky caller, and is invisible in every</text><text x="78" y="450.0" class="cap">number the design document publishes.</text></svg>